<?xml version="1.0" encoding="UTF-8" standalone="no"?>
<svg
   width="900"
   height="220"
   viewBox="0 0 900 220"
   version="1.1"
   id="svg2"
   sodipodi:docname=".tmp-horizontal-light.svg"
   xmlns:inkscape="http://www.inkscape.org/namespaces/inkscape"
   xmlns:sodipodi="http://sodipodi.sourceforge.net/DTD/sodipodi-0.dtd"
   xmlns="http://www.w3.org/2000/svg"
   xmlns:svg="http://www.w3.org/2000/svg">
  <defs
     id="defs2" />
  <sodipodi:namedview
     id="namedview2"
     pagecolor="#ffffff"
     bordercolor="#000000"
     borderopacity="0.25"
     inkscape:showpageshadow="2"
     inkscape:pageopacity="0.0"
     inkscape:pagecheckerboard="0"
     inkscape:deskcolor="#d1d1d1" />
  <path
     transform="translate(20,28) scale(0.656780)"
     d="M 71.00,130.00 L 71.00,165.00 L 84.00,178.00 L 84.00,179.00 L 108.00,204.00 L 108.00,205.00 L 117.00,214.00 L 117.00,215.00 L 127.00,225.00 L 163.00,225.00 L 163.00,224.00 L 154.00,215.00 L 154.00,214.00 L 123.00,182.00 L 123.00,181.00 L 79.00,137.00 L 79.00,136.00 L 78.00,136.00 L 75.00,133.00 L 74.00,131.00 Z M 1.00,0.00 L 1.00,7.00 L 0.00,8.00 L 0.00,12.00 L 1.00,13.00 L 1.00,138.00 L 0.00,139.00 L 1.00,141.00 L 1.00,223.00 L 0.00,225.00 L 1.00,225.00 L 16.00,210.00 L 17.00,210.00 L 40.00,187.00 L 40.00,186.00 L 45.00,180.00 L 48.00,174.00 L 48.00,172.00 L 49.00,171.00 L 49.00,168.00 L 50.00,167.00 L 50.00,164.00 L 51.00,163.00 L 51.00,51.00 L 52.00,50.00 L 137.00,50.00 L 138.00,51.00 L 141.00,51.00 L 147.00,54.00 L 156.00,63.00 L 157.00,65.00 L 157.00,67.00 L 158.00,68.00 L 158.00,70.00 L 159.00,71.00 L 159.00,79.00 L 158.00,80.00 L 158.00,83.00 L 155.00,89.00 L 151.00,93.00 L 150.00,95.00 L 149.00,95.00 L 146.00,98.00 L 140.00,101.00 L 138.00,101.00 L 137.00,102.00 L 134.00,102.00 L 133.00,103.00 L 118.00,103.00 L 117.00,104.00 L 89.00,104.00 L 88.00,105.00 L 80.00,105.00 L 80.00,106.00 L 81.00,106.00 L 84.00,109.00 L 84.00,110.00 L 97.00,123.00 L 97.00,124.00 L 118.00,145.00 L 118.00,146.00 L 144.00,173.00 L 144.00,174.00 L 162.00,193.00 L 162.00,194.00 L 176.00,209.00 L 176.00,210.00 L 189.00,224.00 L 189.00,225.00 L 235.00,225.00 L 235.00,224.00 L 226.00,214.00 L 226.00,213.00 L 223.00,210.00 L 223.00,209.00 L 218.00,204.00 L 218.00,203.00 L 214.00,199.00 L 214.00,198.00 L 210.00,194.00 L 210.00,193.00 L 206.00,189.00 L 206.00,188.00 L 202.00,184.00 L 202.00,183.00 L 197.00,178.00 L 197.00,177.00 L 193.00,173.00 L 193.00,172.00 L 188.00,167.00 L 188.00,166.00 L 183.00,161.00 L 183.00,160.00 L 178.00,155.00 L 178.00,154.00 L 172.00,148.00 L 172.00,147.00 L 167.00,142.00 L 167.00,141.00 L 165.00,139.00 L 165.00,137.00 L 168.00,135.00 L 170.00,135.00 L 176.00,132.00 L 178.00,130.00 L 179.00,130.00 L 181.00,128.00 L 185.00,126.00 L 195.00,116.00 L 195.00,115.00 L 198.00,112.00 L 198.00,111.00 L 200.00,109.00 L 201.00,106.00 L 204.00,102.00 L 204.00,100.00 L 206.00,97.00 L 207.00,90.00 L 208.00,89.00 L 208.00,83.00 L 209.00,82.00 L 209.00,62.00 L 208.00,61.00 L 208.00,55.00 L 207.00,54.00 L 207.00,50.00 L 206.00,49.00 L 206.00,47.00 L 205.00,46.00 L 204.00,41.00 L 200.00,33.00 L 198.00,31.00 L 196.00,27.00 L 184.00,15.00 L 183.00,15.00 L 180.00,12.00 L 177.00,11.00 L 175.00,9.00 L 173.00,8.00 L 171.00,8.00 L 168.00,6.00 L 166.00,6.00 L 163.00,4.00 L 161.00,4.00 L 160.00,3.00 L 157.00,3.00 L 156.00,2.00 L 152.00,2.00 L 151.00,1.00 L 144.00,1.00 L 143.00,0.00 Z"
     fill="#2AAE7F"
     fill-rule="evenodd"
     id="path1" />
  <path
     d="m 208.85156,92 h 6.28711 V 76.027344 h 9.3457 c 0.085,0 0.19825,0 0.28321,0 L 233.17871,92 h 7.08008 l -9.11914,-17.020508 c 5.26758,-1.897461 8.46777,-6.145508 8.46777,-12.036133 0,-8.071289 -5.66406,-13.140625 -14.69824,-13.140625 h -16.05762 z m 6.28711,-21.325195 V 55.240234 h 9.48731 c 5.4375,0 8.77929,2.945313 8.77929,7.703125 0,4.757813 -3.31347,7.731446 -8.75097,7.731446 z m 58.9527,22.004882 c 11.24316,0 19.42773,-8.835937 19.42773,-21.75 0,-12.970703 -8.18457,-21.80664 -19.42773,-21.80664 -11.24316,0 -19.39941,8.835937 -19.39941,21.80664 0,12.885743 8.15625,21.75 19.39941,21.75 z m 0,-5.749023 c -7.27832,0 -13.08398,-5.720703 -13.08398,-16.000977 0,-10.336914 5.80566,-16.057617 13.08398,-16.057617 7.27832,0 13.1123,5.720703 13.1123,16.057617 0,10.280274 -5.83398,16.000977 -13.1123,16.000977 z m 53.85504,5.749023 c 11.24317,0 19.42774,-8.835937 19.42774,-21.75 0,-12.970703 -8.18457,-21.80664 -19.42774,-21.80664 -11.24316,0 -19.39941,8.835937 -19.39941,21.80664 0,12.885743 8.15625,21.75 19.39941,21.75 z m 0,-5.749023 c -7.27832,0 -13.08398,-5.720703 -13.08398,-16.000977 0,-10.336914 5.80566,-16.057617 13.08398,-16.057617 7.27832,0 13.11231,5.720703 13.11231,16.057617 0,10.280274 -5.83399,16.000977 -13.11231,16.000977 z m 31.08551,-31.605469 h 13.45215 V 92 h 6.31543 V 55.325195 h 13.39551 V 49.802734 H 359.03192 Z M 440.14922,92 h 7.27832 l 6.88183,-25.799805 c 0.70801,-2.605468 1.30274,-5.324218 1.89746,-8.21289 0.62305,2.888672 1.2461,5.607422 1.92578,8.21289 L 465.07109,92 h 7.19336 L 483.7625,49.802734 h -6.57032 l -6.20214,24.553711 c -0.87793,3.59668 -1.69922,7.19336 -2.43555,10.790039 -0.76465,-3.596679 -1.61426,-7.193359 -2.52051,-10.790039 l -6.34375,-24.553711 h -6.88183 l -6.4004,24.553711 c -0.93457,3.625 -1.75585,7.278321 -2.5205,10.931641 -0.73633,-3.65332 -1.55762,-7.306641 -2.43555,-10.931641 L 435.2498,49.802734 h -6.54199 z m 50.9947,0 h 6.68359 l 3.85157,-10.959961 h 17.0205 L 522.43787,92 h 6.82519 L 514.05505,49.802734 h -7.58984 z m 12.43262,-16.3125 2.63379,-7.476563 c 1.16113,-3.483398 2.3789,-7.193359 4.07812,-12.659179 1.6709,5.46582 2.86035,9.175781 4.02149,12.659179 l 2.54882,7.476563 z M 544.03607,92 H 570.289 V 86.477539 H 550.32318 V 49.802734 h -6.28711 z m 41.90387,0 h 26.25293 V 86.477539 H 592.22705 V 49.802734 h -6.28711 z m 41.90384,0 h 28.37695 V 86.477539 H 634.13089 V 73.223633 h 20.44727 V 67.757812 H 634.13089 V 55.325195 h 22.08984 v -5.522461 h -28.37695 z m 42.10211,-36.674805 h 13.45215 V 92 h 6.31543 V 55.325195 h 13.39551 v -5.522461 h -33.16309 z"
     id="text1"
     style="font-weight:500;font-size:58px;font-family:'Inter Display';letter-spacing:0.18em;fill:#101917"
     aria-label="ROOT WALLET" />
  <path
     d="m 213.23926,142.25781 c 4.24316,0 7.27246,-3.44824 7.27246,-8.25 0,-4.82324 -3.0293,-8.27148 -7.27246,-8.27148 -4.24317,0 -7.27246,3.44824 -7.27246,8.27148 0,4.80176 3.02929,8.25 7.27246,8.25 z m 0,-1.80469 c -2.91114,0 -5.33887,-2.29882 -5.33887,-6.44531 0,-4.16797 2.42773,-6.46679 5.33887,-6.46679 2.90039,0 5.33886,2.29882 5.33886,6.46679 0,4.14649 -2.43847,6.44531 -5.33886,6.44531 z M 228.40422,142 h 1.86914 l 1.52539,-5.15625 c 0.36523,-1.24609 0.69824,-2.55664 1.03125,-3.83496 0.33301,1.27832 0.66602,2.58887 1.02051,3.83496 L 235.34367,142 h 1.91211 l 3.52344,-11.34375 h -1.91211 l -1.46094,4.98437 c -0.39746,1.36426 -0.76269,2.79297 -1.13867,4.17872 -0.37598,-1.38575 -0.73047,-2.81446 -1.11719,-4.17872 l -1.41797,-4.98437 h -1.80468 l -1.43946,4.98437 c -0.39746,1.375 -0.76269,2.83594 -1.13867,4.23243 -0.37598,-1.39649 -0.73047,-2.85743 -1.12793,-4.23243 l -1.42871,-4.98437 h -1.91211 z m 18.95695,-6.63867 c 0,-2.28809 1.33203,-3.24414 2.98633,-3.24414 1.69727,0 2.68555,0.99902 2.68555,2.96484 V 142 h 1.82617 v -7.04688 c 0,-3.01855 -1.87988,-4.51171 -4.16797,-4.51171 -1.43945,0 -2.58887,0.59082 -3.37305,1.87988 v -1.66504 H 245.535 V 142 h 1.82617 z M 269.46258,142 h 5.86523 c 3.84571,0 5.72559,-1.75098 5.72559,-4.49023 0,-2.28809 -1.43945,-3.48047 -3.25488,-3.78125 v -0.0215 c 1.63281,-0.54785 2.5996,-1.62207 2.5996,-3.45898 0,-2.61035 -1.94433,-4.25391 -5.15625,-4.25391 h -5.77929 z m 1.93359,-1.71875 v -5.56445 h 4.03906 c 2.3418,0 3.65235,1.0957 3.65235,2.86816 0,1.77246 -1.34278,2.69629 -3.75977,2.69629 z m 0,-7.26172 v -5.30664 h 3.9209 c 1.9873,0 3.16895,1.02051 3.16895,2.65332 0,1.63281 -1.18165,2.65332 -3.16895,2.65332 z M 286.34629,142 h 1.82617 v -11.34375 h -1.82617 z m 0.91309,-13.55664 c 0.6875,0 1.24609,-0.55859 1.24609,-1.24609 0,-0.6875 -0.55859,-1.2461 -1.24609,-1.2461 -0.6875,0 -1.2461,0.5586 -1.2461,1.2461 0,0.6875 0.5586,1.24609 1.2461,1.24609 z m 11.8671,2.21289 h -2.29883 v -3.09375 h -1.82617 v 3.09375 h -2.01953 v 1.56836 h 2.01953 v 7.21875 c 0,1.70801 0.95605,2.55664 2.90039,2.55664 h 1.22461 v -1.56836 h -1.05273 c -0.93457,0 -1.2461,-0.30078 -1.2461,-1.18164 v -7.02539 h 2.29883 z m 9.43938,11.60156 c 2.55664,0 4.46875,-1.71875 4.78027,-3.95312 h -1.87988 c -0.35449,1.38574 -1.20313,2.29883 -2.90039,2.29883 -2.14844,0 -3.41602,-1.67579 -3.41602,-4.25391 0,-2.59961 1.27832,-4.29688 3.41602,-4.29688 1.67578,0 2.66406,0.9668 2.93261,2.29883 h 1.84766 c -0.31152,-2.28808 -2.20215,-3.95312 -4.78027,-3.95312 -3.14746,0 -5.26367,2.4707 -5.26367,5.95117 0,3.45898 2.11621,5.9082 5.26367,5.9082 z m 14.58488,0 c 3.14746,0 5.26367,-2.44922 5.26367,-5.9082 0,-3.48047 -2.11621,-5.95117 -5.26367,-5.95117 -3.14746,0 -5.26367,2.4707 -5.26367,5.95117 0,3.45898 2.11621,5.9082 5.26367,5.9082 z m 0,-1.65429 c -2.14844,0 -3.41601,-1.67579 -3.41601,-4.25391 0,-2.59961 1.27832,-4.29688 3.41601,-4.29688 2.1377,0 3.41602,1.70801 3.41602,4.29688 0,2.56738 -1.26758,4.25391 -3.41602,4.25391 z M 333.62137,142 h 1.82617 v -11.34375 h -1.82617 z m 0.91308,-13.55664 c 0.6875,0 1.2461,-0.55859 1.2461,-1.24609 0,-0.6875 -0.5586,-1.2461 -1.2461,-1.2461 -0.6875,0 -1.24609,0.5586 -1.24609,1.2461 0,0.6875 0.55859,1.24609 1.24609,1.24609 z m 8.5263,6.91797 c 0,-2.28809 1.33203,-3.24414 2.98632,-3.24414 1.69727,0 2.68555,0.99902 2.68555,2.96484 V 142 h 1.82617 v -7.04688 c 0,-3.01855 -1.87988,-4.51171 -4.16797,-4.51171 -1.43945,0 -2.58886,0.59082 -3.37304,1.87988 v -1.66504 h -1.78321 V 142 h 1.82618 z m 26.81721,-4.70508 h -2.29883 v -1.74023 c 0,-0.97754 0.36524,-1.35352 1.33203,-1.35352 h 0.9668 v -1.56836 h -1.13867 c -1.83692,0 -2.98633,1.02051 -2.98633,2.64258 v 2.01953 h -2.01953 v 1.56836 h 2.01953 V 142 h 1.82617 v -9.77539 h 2.29883 z M 374.74117,142 h 1.82617 v -6.98242 c 0,-1.92285 1.08496,-2.77149 2.34179,-2.77149 0.52637,0 0.9668,0.0859 1.11719,0.12891 v -1.82617 c -0.15039,-0.0215 -0.44043,-0.0645 -0.77344,-0.0645 -1.41796,0 -2.30957,0.78418 -2.72851,1.95508 h -0.043 v -1.7832 h -1.74023 z m 14.63859,0.25781 c 3.14746,0 5.26367,-2.44922 5.26367,-5.9082 0,-3.48047 -2.11621,-5.95117 -5.26367,-5.95117 -3.14746,0 -5.26367,2.4707 -5.26367,5.95117 0,3.45898 2.11621,5.9082 5.26367,5.9082 z m 0,-1.65429 c -2.14844,0 -3.41601,-1.67579 -3.41601,-4.25391 0,-2.59961 1.27832,-4.29688 3.41601,-4.29688 2.1377,0 3.41602,1.70801 3.41602,4.29688 0,2.56738 -1.26758,4.25391 -3.41602,4.25391 z M 399.85039,142 h 1.82617 v -6.91797 c 0,-1.95508 1.31055,-2.96484 2.73926,-2.96484 1.375,0 2.39551,0.90234 2.39551,2.25586 V 142 h 1.82617 v -7.21875 c 0,-1.53613 1.00976,-2.66406 2.6748,-2.66406 1.29981,0 2.45996,0.6875 2.45996,2.44922 V 142 h 1.82617 v -7.43359 c 0,-2.79297 -1.69726,-4.125 -3.7705,-4.125 -1.68653,0 -2.9541,0.88086 -3.57715,2.04101 -0.47266,-1.13867 -1.69727,-2.04101 -3.25488,-2.04101 -1.38575,0 -2.64258,0.71972 -3.36231,2.05175 v -1.83691 h -1.7832 z m 35.06723,-11.34375 h -2.29883 v -3.09375 h -1.82617 v 3.09375 h -2.01953 v 1.56836 h 2.01953 v 7.21875 c 0,1.70801 0.95605,2.55664 2.90039,2.55664 h 1.22461 v -1.56836 h -1.05274 c -0.93457,0 -1.24609,-0.30078 -1.24609,-1.18164 v -7.02539 h 2.29883 z m 6.7968,4.70508 c 0,-2.28809 1.33203,-3.24414 2.98632,-3.24414 1.69727,0 2.68555,0.99902 2.68555,2.96484 V 142 h 1.82617 v -7.04688 c 0,-3.01855 -1.87988,-4.51171 -4.16797,-4.51171 -1.40722,0 -2.54589,0.56933 -3.33007,1.80468 v -6.25195 h -1.82618 V 142 h 1.82618 z m 17.96867,6.89648 c 2.4707,0 4.4043,-1.48242 4.83398,-3.65234 h -1.82617 c -0.34375,1.18164 -1.39648,1.99805 -3.00781,1.99805 -2.14844,0 -3.37305,-1.5254 -3.45898,-3.74903 h 8.48632 v -0.50488 c 0,-3.52344 -1.99804,-5.95117 -5.15625,-5.95117 -3.00781,0 -5.13476,2.50293 -5.13476,5.95117 0,3.41601 1.93359,5.9082 5.26367,5.9082 z m -3.4375,-6.97168 c 0.19336,-1.99804 1.4502,-3.25488 3.30859,-3.25488 1.86914,0 3.13672,1.25684 3.33008,3.25488 z M 478.45441,142 h 1.82617 v -6.98242 c 0,-1.92285 1.08496,-2.77149 2.3418,-2.77149 0.52636,0 0.96679,0.0859 1.11718,0.12891 v -1.82617 c -0.15039,-0.0215 -0.44043,-0.0645 -0.77343,-0.0645 -1.41797,0 -2.30957,0.78418 -2.72852,1.95508 h -0.043 v -1.7832 h -1.74023 z m 14.63861,0.25781 c 3.14746,0 5.26367,-2.44922 5.26367,-5.9082 0,-3.48047 -2.11621,-5.95117 -5.26367,-5.95117 -3.14746,0 -5.26367,2.4707 -5.26367,5.95117 0,3.45898 2.11621,5.9082 5.26367,5.9082 z m 0,-1.65429 c -2.14844,0 -3.41602,-1.67579 -3.41602,-4.25391 0,-2.59961 1.27832,-4.29688 3.41602,-4.29688 2.13769,0 3.41601,1.70801 3.41601,4.29688 0,2.56738 -1.26757,4.25391 -3.41601,4.25391 z m 15.1542,1.65429 c 3.14746,0 5.26367,-2.44922 5.26367,-5.9082 0,-3.48047 -2.11621,-5.95117 -5.26367,-5.95117 -3.14746,0 -5.26367,2.4707 -5.26367,5.95117 0,3.45898 2.11621,5.9082 5.26367,5.9082 z m 0,-1.65429 c -2.14843,0 -3.41601,-1.67579 -3.41601,-4.25391 0,-2.59961 1.27832,-4.29688 3.41601,-4.29688 2.1377,0 3.41602,1.70801 3.41602,4.29688 0,2.56738 -1.26758,4.25391 -3.41602,4.25391 z m 15.42276,-9.94727 h -2.29883 v -3.09375 h -1.82617 v 3.09375 h -2.01953 v 1.56836 h 2.01953 v 7.21875 c 0,1.70801 0.95606,2.55664 2.90039,2.55664 h 1.22461 v -1.56836 h -1.05273 c -0.93457,0 -1.2461,-0.30078 -1.2461,-1.18164 v -7.02539 h 2.29883 z m 6.03412,11.52637 c 0.75195,0 1.34277,-0.59082 1.34277,-1.34278 0,-0.75195 -0.59082,-1.34277 -1.34277,-1.34277 -0.75195,0 -1.34277,0.59082 -1.34277,1.34277 0,0.75196 0.59082,1.34278 1.34277,1.34278 z"
     id="text2"
     style="font-size:22px;font-family:'Inter Display';letter-spacing:0.14em;fill:#2aae7f"
     aria-label="Own Bitcoin from the root." />
</svg>
